<?xml version="1.0" encoding="UTF-8" standalone="no"?>
<svg
   width="615.4942"
   height="590.00024"
   viewBox="0 0 162.8495 156.10424"
   version="1.1"
   id="svg8"
   inkscape:version="1.1 (c4e8f9ed74, 2021-05-24)"
   sodipodi:docname="logo_tux.svg"
   xmlns:inkscape="http://www.inkscape.org/namespaces/inkscape"
   xmlns:sodipodi="http://sodipodi.sourceforge.net/DTD/sodipodi-0.dtd"
   xmlns="http://www.w3.org/2000/svg"
   xmlns:svg="http://www.w3.org/2000/svg"
   xmlns:rdf="http://www.w3.org/1999/02/22-rdf-syntax-ns#"
   xmlns:cc="http://creativecommons.org/ns#"
   xmlns:dc="http://purl.org/dc/elements/1.1/">
  <defs
     id="defs2">
    <rect
       x="163.2103"
       y="291.68646"
       width="290.70715"
       height="251.63573"
       id="rect182451" />
  </defs>
  <sodipodi:namedview
     id="base"
     pagecolor="#ffffff"
     bordercolor="#666666"
     borderopacity="1.0"
     inkscape:pageopacity="0.0"
     inkscape:pageshadow="2"
     inkscape:zoom="0.49497475"
     inkscape:cx="-149.50258"
     inkscape:cy="408.10163"
     inkscape:document-units="px"
     inkscape:current-layer="layer1"
     inkscape:document-rotation="0"
     showgrid="false"
     inkscape:pagecheckerboard="false"
     showborder="true"
     borderlayer="false"
     inkscape:showpageshadow="true"
     units="px"
     objecttolerance="2"
     gridtolerance="2"
     guidetolerance="2"
     inkscape:window-width="1600"
     inkscape:window-height="840"
     inkscape:window-x="0"
     inkscape:window-y="32"
     inkscape:window-maximized="1"
     fit-margin-top="0"
     fit-margin-left="0"
     fit-margin-right="0"
     fit-margin-bottom="0" />
  <metadata
     id="metadata5">
    <rdf:RDF>
      <cc:Work
         rdf:about="">
        <dc:format>image/svg+xml</dc:format>
        <dc:type
           rdf:resource="http://purl.org/dc/dcmitype/StillImage" />
      </cc:Work>
    </rdf:RDF>
  </metadata>
  <g
     inkscape:label="Capa 1"
     inkscape:groupmode="layer"
     id="layer1"
     transform="translate(-23.575261,-70.447885)">
    <path
       id="rect240455"
       style="fill:#651d65;fill-opacity:1;stroke:none;stroke-width:3.6227;stroke-miterlimit:4;stroke-dasharray:none;stroke-opacity:1"
       d="m 166.24716,70.447885 c -2.6e-4,0.0044 -0.001,0.009 -0.002,0.01344 h 0.0181 c -1.4e-4,-0.0052 0.002,-0.0085 0.002,-0.01344 z m -47.44361,0.08372 c -0.014,0.0066 -0.0274,0.01408 -0.0408,0.0217 0.003,-2.8e-5 0.007,2.8e-5 0.0109,0 10e-4,-5.81e-4 0.003,-3.15e-4 0.005,-10e-4 0.009,-0.0053 0.0352,-0.02531 0.0253,-0.02067 z m -20.359999,0.268713 c -0.01267,0.01626 -0.05398,0.03322 -0.175702,0.05219 -13.207749,2.059072 -25.088724,9.706079 -32.626433,20.998719 -2.842752,4.258898 -5.369931,10.272363 -6.349482,15.109153 -0.22103,1.09141 -0.590804,4.54422 -0.821655,7.67292 -0.847654,11.48821 -2.210139,17.13707 -5.422927,22.48235 -2.812999,4.68055 -6.224364,8.25283 -14.387234,15.0642 -2.930473,2.44528 -6.303581,5.46499 -7.495667,6.7107 -2.454339,2.56475 -5.212368,6.1588 -5.934522,7.73338 -0.02712,0.0591 -0.04858,-0.10872 -0.07028,-0.2558 -0.0052,0.0615 -0.02024,0.13138 -0.04754,0.20826 -0.0041,0.0115 -0.02936,0.0433 -0.06408,0.0806 -1.96e-4,8e-4 -3.15e-4,0.002 -5.16e-4,0.003 -0.0051,0.0223 -0.01189,0.0432 -0.02015,0.0625 v 5.3e-4 c -0.0043,0.004 2.27e-4,0.0114 -0.0052,0.0155 -0.003,0.0109 -0.0078,0.0206 -0.0155,0.0279 -0.01345,0.0775 -0.0067,0.0764 -0.04341,0.11575 0.311644,0.0351 0.08316,0.12107 -0.12144,0.16692 -0.0024,0.007 -0.0048,0.0148 -0.0072,0.0222 -0.01444,0.0118 -0.02997,0.0236 -0.04599,0.0351 -0.01081,0.0253 -0.01887,0.0509 -0.03256,0.076 -0.0049,0.009 -0.0093,0.0178 -0.01292,0.0269 -0.0028,0.002 -0.0065,0.005 -0.01033,0.008 v 0.29559 a 3.180201,3.0654372 0 0 0 -1.157552,2.36368 3.180201,3.0654372 0 0 0 3.180167,3.06545 3.180201,3.0654372 0 0 0 1.045931,-0.1726 c 0.975584,-0.15792 2.469226,-0.91461 8.043953,-4.03651 6.509783,-3.64554 10.491368,-5.37323 11.494389,-4.98833 0.495501,0.19014 0.586473,0.65811 1.064018,5.45806 0.86864,8.73097 2.467744,14.29131 6.179467,21.48913 1.846919,3.58153 4.953543,8.44477 6.176368,9.66866 l 0.705384,0.7059 -2.028301,0.82993 c -1.115414,0.45632 -3.099345,1.44291 -4.409033,2.19263 -6.99094,4.00194 -9.959599,8.3322 -9.959599,14.52728 0,1.96623 0.1133,2.6291 0.64854,3.79822 1.081199,2.36165 3.174638,3.60381 6.532934,3.87676 0.905566,0.0736 -2.597638,0.13562 -7.397481,0.17777 -0.0124,0.0278 -0.02177,0.056 -0.03669,0.0832 H 163.96773 c -0.007,-0.0323 -0.0125,-0.0646 -0.016,-0.0971 -4.1729,-0.0393 -7.13127,-0.0897 -6.09162,-0.14625 2.75252,-0.14969 2.85669,-0.17878 4.3558,-1.21181 0.92914,-0.64025 1.84743,-1.56353 2.32493,-2.33732 0.6815,-1.1044 0.80448,-1.59614 0.9002,-3.59823 0.33486,-7.00384 -4.43633,-12.85383 -13.75368,-16.86306 -1.21183,-0.52146 -2.24275,-0.98238 -2.29082,-1.02423 -0.0481,-0.0418 0.73801,-1.30704 1.74718,-2.81119 6.74553,-10.05413 10.05682,-19.1207 10.90373,-29.85451 0.40173,-5.09258 0.30944,-4.85214 1.80299,-4.70308 1.70388,0.17005 4.52395,1.39758 9.05836,3.94343 4.55117,2.55524 6.94582,3.81675 8.43825,4.44366 a 3.180201,3.0654372 0 0 0 1.89756,0.60823 3.180201,3.0654372 0 0 0 3.18016,-3.06544 3.180201,3.0654372 0 0 0 -0.91932,-2.15543 c -0.23917,-0.93718 -1.64636,-3.29107 -3.18688,-5.25342 -2.23306,-2.84418 -6.00677,-6.48144 -10.87426,-10.47999 -4.81489,-3.95534 -10.65417,-9.74608 -12.54652,-12.44213 -3.87572,-5.52186 -5.7125,-11.17225 -6.49988,-19.99372 -1.0004,-11.20785 -1.2745,-12.94699 -2.79053,-17.71468 -2.13915,-6.727316 -6.01722,-12.622116 -12.1207,-18.424196 -6.98938,-6.64422 -15.90643,-11.035631 -25.42222,-12.519133 -0.12663,-0.01974 -0.10153,-0.03574 -0.0925,-0.05219 h -0.38965 -0.44648 -0.24908 -0.39791 -0.26562 -0.34261 -0.27079 -0.28473 -0.33693 -0.30179 -0.55708 -0.39842 -0.6227 -0.54416 -0.77152 -0.67232 -0.65732 -0.6165 -0.37207 -0.52917 -0.3948 -0.60617 -0.61185 -0.58549 -0.24857 -0.35036 -0.270785 -0.426331 -0.41393 -0.397907 z M 24.756056,167.18204 c 0.01076,-0.02 0.02414,-0.0586 0.0124,-0.047 -0.01375,0.0136 -0.02505,0.0295 -0.03566,0.046 v 0.0258 c 0.0073,-0.005 0.01415,-0.0106 0.01912,-0.0176 0.0014,-0.002 0.0026,-0.004 0.0041,-0.007 z m 0.250631,-0.416 c 3.65e-4,-0.002 0.0011,-0.005 0.0016,-0.007 -0.0024,0.004 -0.0047,0.008 -0.0072,0.0119 0.0021,-0.002 0.0039,-0.003 0.0057,-0.005 z m 0.0155,-0.0279 c 7.22e-4,-0.003 9.87e-4,-0.006 0.0016,-0.008 -0.0018,0.004 -0.0038,0.008 -0.0057,0.0114 0.0014,-10e-4 0.0028,-0.002 0.0041,-0.003 z M 24.732799,70.811687 V 133.4828 c 0.0082,-0.01 0.01815,-0.0195 0.02946,-0.0284 -0.0092,-3.8984 -0.0228,-6.26153 -0.02377,-14.38931 z m 0.01705,62.761543 c -0.0021,0.003 -0.0077,0.0122 -0.01137,0.0186 6.34e-4,0.001 9.41e-4,0.003 0.0016,0.004 0.004,-0.007 0.0084,-0.0139 0.01033,-0.0217 5.15e-4,-0.002 3.12e-4,-0.002 -5.17e-4,-0.001 z m -0.001,3.2303 c -0.0057,0.0165 -0.01042,0.0331 -0.01602,0.0496 v 0.0238 c 0.0052,-0.0245 0.01089,-0.0488 0.01602,-0.0734 z m 161.079061,2.63446 c -2.7e-4,10e-4 5.3e-4,0.003 0.003,0.007 0.0132,0.0193 0.0209,0.0265 0.0331,0.0434 v -0.0279 c -0.0135,-0.009 -0.0352,-0.0249 -0.0362,-0.0222 z m -161.03462,9.27799 c -0.0095,0.001 -0.01917,0.003 -0.02842,0.003 0.0092,0.001 0.019,-2.2e-4 0.02842,5.3e-4 -5e-6,-0.002 6e-6,-0.002 0,-0.004 z m 160.93695,25.39483 c -0.001,5.3e-4 -0.005,0.004 -0.006,0.005 0.001,0.002 0.003,0.003 0.004,0.005 0.001,-0.002 0.005,-0.003 0.006,-0.005 0.001,-0.003 -1.8e-4,-0.002 0,-0.004 -0.001,-5.3e-4 -0.002,-0.001 -0.004,-0.002 z m 0.11679,22.36866 c -0.002,0.002 -0.006,0.0101 -0.008,0.016 1e-5,0.002 -1e-5,0.005 0,0.007 0.003,-0.007 0.006,-0.0144 0.009,-0.0217 5.3e-4,-0.002 2.6e-4,-0.002 -5.3e-4,-0.001 z m -82.08288,26.37979 c 3.571,0.0231 5.61257,0.39966 6.8337,1.26039 2.33834,1.64821 3.4396,1.98949 7.0037,2.16989 1.81901,0.0921 -3.00301,0.17259 -10.71562,0.1788 -7.712608,0.006 -13.308543,-0.0717 -12.435418,-0.17311 0.873125,-0.10142 2.004219,-0.40717 2.513541,-0.67955 0.509323,-0.27238 1.02411,-0.46814 1.144117,-0.4346 0.120007,0.0335 0.655788,-0.28255 1.190625,-0.7028 1.682315,-1.32186 2.535855,-1.63148 4.465355,-1.61902 z"
       inkscape:export-filename="/home/geer/Documentos/curso_reactjs/proyectos/cr_20210817/assets/img/logo_tux.png"
       inkscape:export-xdpi="92.094917"
       inkscape:export-ydpi="92.094917" />
    <g
       id="g104695"
       inkscape:export-filename="/home/geer/Documentos/curso_reactjs/proyectos/cr_20210817/assets/img/logo_tux.png"
       inkscape:export-xdpi="92.094917"
       inkscape:export-ydpi="92.094917"
       inkscape:label="objFace"
       transform="translate(0.29842769,-2.7306523e-5)"
       style="display:inline">
      <path
         id="path98"
         style="fill:#000000;stroke-width:0.282833"
         d="m 89.818382,89.927113 a 15.571992,16.728159 0 0 0 -15.572163,16.728177 15.571992,16.728159 0 0 0 15.572163,16.72818 15.571992,16.728159 0 0 0 15.206758,-13.13305 15.431894,11.364071 0 0 0 15.2968,9.89552 15.431894,11.364071 0 0 0 15.43184,-11.36416 15.431894,11.364071 0 0 0 -15.43184,-11.363652 15.431894,11.364071 0 0 0 -14.94542,8.561232 15.571992,16.728159 0 0 0 -15.558138,-16.052247 z"
         inkscape:export-filename="/home/geer/Documentos/curso_reactjs/proyectos/cr_20210817/assets/img/logo_tux.png"
         inkscape:export-xdpi="92.094917"
         inkscape:export-ydpi="92.094917" />
      <path
         style="fill:none;stroke:#000000;stroke-width:3.13803;stroke-linecap:butt;stroke-linejoin:miter;stroke-miterlimit:4;stroke-dasharray:none;stroke-opacity:1"
         d="m 94.588125,120.45573 c 2.141859,-1.36909 10.475965,10.75986 13.827385,14.44877 2.02339,2.22717 6.85294,-5.61113 10.07033,-16.66101"
         sodipodi:nodetypes="csc"
         id="path2003" />
    </g>
    <text
       xml:space="preserve"
       transform="matrix(0.82374893,0,0,0.37913373,-62.359961,19.129094)"
       id="text182449"
       style="font-style:normal;font-variant:normal;font-weight:normal;font-stretch:normal;font-size:192px;line-height:1.25;font-family:'SH Pinscher';-inkscape-font-specification:'SH Pinscher';white-space:pre;shape-inside:url(#rect182451);display:inline"
       inkscape:export-filename="/home/geer/Documentos/curso_reactjs/proyectos/cr_20210817/assets/img/logo_tux.png"
       inkscape:export-xdpi="92.094917"
       inkscape:export-ydpi="92.094917"><tspan
         x="163.21094"
         y="457.59859"
         id="tspan341640">X</tspan></text>
  </g>
</svg>
