<?xml version="1.0" encoding="UTF-8" standalone="no"?>
<svg
   width="2396.1587"
   height="590"
   viewBox="0 0 633.98364 156.10417"
   version="1.1"
   id="svg8"
   inkscape:version="1.1 (c4e8f9ed74, 2021-05-24)"
   sodipodi:docname="logo_tux_juegox.svg"
   xmlns:inkscape="http://www.inkscape.org/namespaces/inkscape"
   xmlns:sodipodi="http://sodipodi.sourceforge.net/DTD/sodipodi-0.dtd"
   xmlns="http://www.w3.org/2000/svg"
   xmlns:svg="http://www.w3.org/2000/svg"
   xmlns:rdf="http://www.w3.org/1999/02/22-rdf-syntax-ns#"
   xmlns:cc="http://creativecommons.org/ns#"
   xmlns:dc="http://purl.org/dc/elements/1.1/">
  <defs
     id="defs2">
    <rect
       x="747.46991"
       y="48.22501"
       width="1129.9283"
       height="474.46872"
       id="rect264788" />
    <rect
       x="163.2103"
       y="291.68646"
       width="290.70715"
       height="251.63573"
       id="rect182451" />
    <rect
       x="183.05351"
       y="301.48434"
       width="179.96376"
       height="170.01224"
       id="rect159913" />
    <rect
       x="171.07121"
       y="258.6763"
       width="300.13849"
       height="260.75684"
       id="rect107799" />
    <rect
       x="268.99377"
       y="548.31665"
       width="270.9324"
       height="204.94598"
       id="rect12613" />
  </defs>
  <sodipodi:namedview
     id="base"
     pagecolor="#ffffff"
     bordercolor="#666666"
     borderopacity="1.0"
     inkscape:pageopacity="0.0"
     inkscape:pageshadow="2"
     inkscape:zoom="0.24748738"
     inkscape:cx="1121.2693"
     inkscape:cy="436.3859"
     inkscape:document-units="px"
     inkscape:current-layer="layer1"
     inkscape:document-rotation="0"
     showgrid="false"
     inkscape:pagecheckerboard="false"
     showborder="true"
     borderlayer="false"
     inkscape:showpageshadow="true"
     units="px"
     objecttolerance="2"
     gridtolerance="2"
     guidetolerance="2"
     inkscape:window-width="1600"
     inkscape:window-height="840"
     inkscape:window-x="0"
     inkscape:window-y="32"
     inkscape:window-maximized="1"
     fit-margin-top="0"
     fit-margin-left="0"
     fit-margin-right="0"
     fit-margin-bottom="0"
     width="2500px" />
  <metadata
     id="metadata5">
    <rdf:RDF>
      <cc:Work
         rdf:about="">
        <dc:format>image/svg+xml</dc:format>
        <dc:type
           rdf:resource="http://purl.org/dc/dcmitype/StillImage" />
      </cc:Work>
    </rdf:RDF>
  </metadata>
  <g
     inkscape:label="Bg"
     inkscape:groupmode="layer"
     id="layer1"
     transform="translate(-23.276823,-70.447914)"
     style="opacity:1">
    <path
       id="rect240455"
       style="fill:#651d65;fill-opacity:1;stroke:none;stroke-width:13.6921;stroke-miterlimit:4;stroke-dasharray:none;stroke-opacity:1"
       d="m 534.85742,0 c -0.001,0.01662922 -0.004,0.03386636 -0.006,0.05078125 h 0.0684 C 534.91927,0.03131583 534.92655,0.01872508 534.92578,0 Z M 355.54297,0.31640625 c -0.053,0.0249591 -0.1036,0.0532318 -0.1543,0.0820313 0.0128,-1.0545e-4 0.0282,1.0544e-4 0.041,0 0.005,-0.002197 0.0127,-0.00119 0.0176,-0.003906 0.0359,-0.020101 0.13312,-0.0956502 0.0957,-0.0781253 z M 278.5918,1.3320312 c -0.0479,0.061437 -0.20403,0.1255344 -0.66407,0.1972657 C 228.00868,9.3116149 183.10421,38.213688 154.61523,80.894531 143.87097,96.991154 134.31943,119.71922 130.61719,138 c -0.83539,4.12501 -2.23296,17.17499 -3.10547,29 -3.20373,43.41997 -8.35328,64.77002 -20.4961,84.97266 -10.631809,17.69026 -23.525156,31.19178 -54.376948,56.93554 -11.075803,9.24201 -23.824556,20.65509 -28.330078,25.36328 -9.276242,9.69355 -19.7002875,23.27735 -22.4296878,29.22852 -0.1025161,0.22353 -0.1836031,-0.41091 -0.265625,-0.9668 -0.019722,0.23246 -0.076507,0.49653 -0.1796874,0.78711 -0.015406,0.0434 -0.1109812,0.16358 -0.2421876,0.30469 -7.402e-4,0.003 -0.00119,0.006 -0.00195,0.01 -0.019352,0.0842 -0.044923,0.16317 -0.076172,0.23632 v 0.002 c -0.016129,0.0142 8.563e-4,0.0433 -0.019531,0.0586 -0.011454,0.0411 -0.029583,0.0778 -0.058594,0.10547 -0.0508389,0.29289 -0.025456,0.28883 -0.16406245,0.4375 1.17786915,0.1327 0.31430745,0.4576 -0.45898437,0.63086 -0.009039,0.028 -0.0183289,0.0559 -0.0273438,0.084 -0.0545768,0.0446 -0.11326985,0.0893 -0.17382812,0.13282 -0.040865,0.0957 -0.0713295,0.1923 -0.12304688,0.28711 -0.01838554,0.0336 -0.03511742,0.0674 -0.04882812,0.10156 -0.01058314,0.007 -0.02472054,0.0195 -0.0390625,0.0312 v 1.11719 a 12.019657,11.585904 0 0 0 -4.37499996,8.93359 12.019657,11.585904 0 0 0 12.0195312,11.58594 12.019657,11.585904 0 0 0 3.9531248,-0.65235 C 15.284905,386.12996 20.930164,383.27002 42,371.4707 c 24.603904,-13.77842 39.652414,-20.30825 43.443359,-18.85351 1.87276,0.71864 2.21659,2.48736 4.021485,20.6289 3.283049,32.99891 9.326904,54.01439 23.355466,81.21875 6.98048,13.53649 18.72205,31.91725 23.34375,36.54297 l 2.66602,2.66797 -7.66602,3.13672 c -4.21574,1.72467 -11.71406,5.45352 -16.66406,8.28711 -26.42245,15.12544 -37.642578,31.49177 -37.642578,54.90625 0,7.43142 0.428217,9.93678 2.451172,14.35547 4.086421,8.92592 11.998634,13.62072 24.691406,14.65234 3.42261,0.27818 -9.817846,0.51258 -27.958984,0.67188 -0.04688,0.10502 -0.08228,0.2117 -0.138672,0.31445 H 526.24219 c -0.0251,-0.12214 -0.0474,-0.2441 -0.0606,-0.36719 -15.77158,-0.14843 -26.95283,-0.33903 -23.02344,-0.55273 10.40323,-0.56576 10.79693,-0.67571 16.46289,-4.58008 3.51171,-2.41984 6.98239,-5.90939 8.78711,-8.83398 2.57575,-4.17408 3.04057,-6.03262 3.40235,-13.59961 1.26561,-26.47117 -16.76723,-48.58138 -51.98243,-63.73438 -4.58014,-1.97087 -8.47652,-3.71292 -8.6582,-3.87109 -0.18179,-0.15799 2.78933,-4.93999 6.60352,-10.625 C 503.26828,445.83608 515.7834,411.56873 518.98433,371 c 1.51834,-19.24755 1.16953,-18.3388 6.81445,-17.77539 6.43986,0.64271 17.0984,5.28219 34.23633,14.9043 17.20125,9.65759 26.2519,14.42551 31.89257,16.79492 a 12.019657,11.585904 0 0 0 7.17188,2.29883 12.019657,11.585904 0 0 0 12.01953,-11.58594 12.019657,11.585904 0 0 0 -3.47461,-8.14649 C 606.74053,363.94814 601.422,355.05156 595.59956,347.63477 587.15967,336.88514 572.89681,323.13802 554.5,308.02539 536.30199,293.07607 514.23227,271.1898 507.08008,261 492.43176,240.13036 485.4896,218.77454 482.51367,185.43359 478.73263,143.07322 477.69667,136.50008 471.9668,118.48047 463.88182,93.054383 449.22452,70.774824 426.15625,48.845703 399.73973,23.733691 366.03749,7.1362328 330.07227,1.5292969 c -0.4786,-0.07461 -0.3837,-0.1350856 -0.34961,-0.1972657 h -1.47266 -1.6875 -0.94141 -1.5039 -1.00391 -1.29492 -1.02344 -1.07617 -1.27344 -1.14062 -2.10547 -1.50586 -2.35352 -2.05664 -2.91601 -2.54102 -2.48437 -2.33008 -1.40625 -2 -1.49219 -2.29101 -2.3125 -2.21289 -0.93946 -1.32422 -1.02343 -1.61133 -1.56446 -1.5039 z M 0.08789062,365.60938 c 0.04068173,-0.0757 0.09123628,-0.22146 0.046875,-0.17774 C 0.08281275,365.48298 0.04010972,365.54305 0,365.60547 v 0.0976 c 0.02758666,-0.0191 0.05346953,-0.0401 0.07226562,-0.0664 0.00517,-0.007 0.0098182,-0.0165 0.015625,-0.0273 z m 0.94726558,-1.57227 c 0.00138,-0.008 0.00406,-0.0171 0.00586,-0.0254 -0.00898,0.0149 -0.01772,0.0305 -0.027344,0.0449 0.00807,-0.006 0.014737,-0.0132 0.021484,-0.0195 z m 0.058594,-0.10547 c 0.00273,-0.01 0.00373,-0.0215 0.00586,-0.0312 -0.00677,0.0147 -0.014201,0.0287 -0.021484,0.043 0.00512,-0.004 0.010633,-0.008 0.015625,-0.0117 z M 0,1.375 v 236.86719 c 0.03106942,-0.0376 0.06861027,-0.0735 0.11132812,-0.10742 C 0.07640023,223.40066 0.02515578,214.46913 0.02148438,183.75 Z m 0.06445312,237.20898 c -0.0080177,0.0103 -0.02901312,0.0463 -0.04296874,0.0703 0.0023928,0.005 0.0035531,0.0106 0.0058594,0.0156 0.01520509,-0.0267 0.03163624,-0.0525 0.0390625,-0.082 0.0019483,-0.008 0.0011778,-0.008 -0.0019531,-0.004 z m -0.0039063,12.20899 C 0.03911248,250.85513 0.02114928,250.91823 0,250.98047 v 0.0898 c 0.0198268,-0.0925 0.04115156,-0.1846 0.06054687,-0.27734 z M 608.86328,260.75 c -10e-4,0.004 0.002,0.0114 0.0117,0.0254 0.05,0.0729 0.079,0.10005 0.125,0.16406 v -0.10547 c -0.0509,-0.0331 -0.133,-0.094 -0.13672,-0.084 z M 0.22851562,295.81641 c -0.0359309,0.005 -0.0724505,0.0115 -0.10742187,0.0117 0.0347246,0.004 0.0718195,-8e-4 0.10742187,0.002 -2.086e-5,-0.006 2.127e-5,-0.008 0,-0.0137 z M 608.49414,391.79688 c -0.004,0.002 -0.017,0.0165 -0.0215,0.0195 0.004,0.007 0.01,0.0126 0.0137,0.0195 0.005,-0.008 0.0177,-0.0106 0.0215,-0.0195 0.005,-0.0109 -6.9e-4,-0.008 0,-0.0137 -0.005,-0.002 -0.009,-0.004 -0.0137,-0.006 z m 0.44141,84.54296 c -0.007,0.009 -0.0217,0.038 -0.0312,0.0606 4e-5,0.008 -4e-5,0.0175 0,0.0254 0.0112,-0.0273 0.0233,-0.0543 0.0332,-0.082 0.002,-0.007 10e-4,-0.008 -0.002,-0.004 z m -310.23438,99.70313 c 13.49669,0.0873 21.21283,1.51052 25.82813,4.76367 8.83782,6.22946 13.00009,7.51935 26.4707,8.20117 6.875,0.3481 -11.34998,0.65231 -40.5,0.67578 -29.15001,0.0227 -50.3,-0.27097 -47,-0.65429 3.3,-0.38332 7.575,-1.53889 9.5,-2.56836 1.925,-1.02947 3.87065,-1.76935 4.32422,-1.64258 0.45357,0.12661 2.47857,-1.0679 4.5,-2.65625 6.35836,-4.99601 9.58432,-6.16623 16.87695,-6.11914 z"
       transform="matrix(0.26458334,0,0,0.26458334,24.434374,70.447914)"
       inkscape:export-filename="/home/geer/Documentos/curso_reactjs/proyectos/cr_20210817/assets/img/logo_tux_juegox.png"
       inkscape:export-xdpi="92.094917"
       inkscape:export-ydpi="92.094917" />
  </g>
  <g
     inkscape:groupmode="layer"
     id="layer4"
     inkscape:label="Body"
     style="display:inline"
     transform="translate(1.1575514)" />
  <g
     inkscape:groupmode="layer"
     id="layer3"
     inkscape:label="Face"
     style="display:inline"
     transform="translate(1.1575514)">
    <g
       id="g104695"
       inkscape:export-filename="/home/geer/Documentos/curso_reactjs/proyectos/cr_20210817/assets/img/logo_tux_juegox.png"
       inkscape:export-xdpi="92.094917"
       inkscape:export-ydpi="92.094917"
       inkscape:label="objFace"
       transform="translate(-24.434374,-70.447914)">
      <path
         id="path98"
         style="fill:#000000;stroke-width:0.282833"
         d="m 89.818382,89.927113 a 15.571992,16.728159 0 0 0 -15.572163,16.728177 15.571992,16.728159 0 0 0 15.572163,16.72818 15.571992,16.728159 0 0 0 15.206758,-13.13305 15.431894,11.364071 0 0 0 15.2968,9.89552 15.431894,11.364071 0 0 0 15.43184,-11.36416 15.431894,11.364071 0 0 0 -15.43184,-11.363652 15.431894,11.364071 0 0 0 -14.94542,8.561232 15.571992,16.728159 0 0 0 -15.558138,-16.052247 z"
         inkscape:export-filename="/home/geer/Documentos/curso_reactjs/proyectos/cr_20210817/assets/img/logo_tux.png"
         inkscape:export-xdpi="92.094917"
         inkscape:export-ydpi="92.094917" />
      <path
         style="fill:none;stroke:#000000;stroke-width:3.13803;stroke-linecap:butt;stroke-linejoin:miter;stroke-miterlimit:4;stroke-dasharray:none;stroke-opacity:1"
         d="m 94.588125,120.45573 c 2.141859,-1.36909 10.475965,10.75986 13.827385,14.44877 2.02339,2.22717 6.85294,-5.61113 10.07033,-16.66101"
         sodipodi:nodetypes="csc"
         id="path2003" />
    </g>
    <text
       xml:space="preserve"
       transform="matrix(0.82374893,0,0,0.37913373,-87.092766,-51.318793)"
       id="text182449"
       style="font-style:normal;font-variant:normal;font-weight:normal;font-stretch:normal;font-size:192px;line-height:1.25;font-family:'SH Pinscher';-inkscape-font-specification:'SH Pinscher';white-space:pre;shape-inside:url(#rect182451)"
       inkscape:export-filename="/home/geer/Documentos/curso_reactjs/proyectos/cr_20210817/assets/img/logo_tux_juegox.png"
       inkscape:export-xdpi="92.094917"
       inkscape:export-ydpi="92.094917"><tspan
         x="163.21094"
         y="457.59859"
         id="tspan341663">X</tspan></text>
  </g>
  <g
     inkscape:groupmode="layer"
     id="layer5"
     inkscape:label="Text">
    <text
       xml:space="preserve"
       style="font-size:135.467px;line-height:1.25;font-family:'SH Pinscher';-inkscape-font-specification:'SH Pinscher';word-spacing:-26.4583px;opacity:1;stroke-width:0.264583"
       x="159.21567"
       y="120.69256"
       id="text265916"
       inkscape:export-filename="/home/geer/Documentos/curso_reactjs/proyectos/cr_20210817/assets/img/logo_tux_juegox.png"
       inkscape:export-xdpi="92.094917"
       inkscape:export-ydpi="92.094917"><tspan
         sodipodi:role="line"
         id="tspan265914"
         style="font-size:135.467px;stroke-width:0.264583"
         x="159.21567"
         y="120.69256">Tux Juegox</tspan></text>
  </g>
  <g
     id="layer2"
     inkscape:label="Frente"
     transform="translate(1.1575514)" />
</svg>
